<svg height="514.42745pt" viewBox="0 0 514.42745 514.42745" width="514.42745pt" xmlns="http://www.w3.org/2000/svg"><path d="m466.199219 514.425781h-417.972657c-26.589843 0-48.226562-21.636719-48.226562-48.226562v-417.972657c0-26.589843 21.636719-48.226562 48.226562-48.226562h417.972657c26.589843 0 48.226562 21.636719 48.226562 48.226562v417.972657c0 26.589843-21.636719 48.226562-48.226562 48.226562zm-417.972657-482.273437c-8.871093 0-16.074218 7.203125-16.074218 16.074218v417.972657c0 8.875 7.203125 16.078125 16.074218 16.078125h417.972657c8.875 0 16.078125-7.203125 16.078125-16.078125v-417.972657c0-8.871093-7.203125-16.074218-16.078125-16.074218zm0 0" fill="#fff"/><path d="m434.046875 273.289062h-353.667969c-8.875 0-16.074218-7.203124-16.074218-16.074218 0-8.875 7.199218-16.078125 16.074218-16.078125h353.667969c8.875 0 16.078125 7.203125 16.078125 16.078125 0 8.871094-7.203125 16.074218-16.078125 16.074218zm0 0" fill="#fff"/><path d="m257.214844 450.125c-8.875 0-16.078125-7.203125-16.078125-16.078125v-353.667969c0-8.875 7.203125-16.074218 16.078125-16.074218 8.871094 0 16.074218 7.199218 16.074218 16.074218v353.667969c0 8.875-7.203124 16.078125-16.074218 16.078125zm0 0" fill="#fff"/></svg>